<svg width="1200" height="800" viewBox="0 0 1200 800" fill="none" xmlns="http://www.w3.org/2000/svg">
  <defs>
    <linearGradient id="bg" x1="0" y1="0" x2="1200" y2="800">
      <stop offset="0%" stop-color="#0f172a"/>
      <stop offset="100%" stop-color="#1e293b"/>
    </linearGradient>
  </defs>
  <rect width="1200" height="800" rx="16" fill="url(#bg)"/>
  <rect x="40" y="40" width="240" height="720" rx="12" fill="rgba(255,255,255,0.03)" stroke="rgba(255,255,255,0.06)" stroke-width="1"/>
  <rect x="300" y="40" width="860" height="720" rx="12" fill="rgba(255,255,255,0.02)"/>
  <!-- Pathology card mock -->
  <rect x="320" y="80" width="400" height="250" rx="12" fill="rgba(244,63,94,0.06)" stroke="rgba(244,63,94,0.12)" stroke-width="1"/>
  <rect x="740" y="80" width="400" height="250" rx="12" fill="rgba(255,255,255,0.03)" stroke="rgba(255,255,255,0.06)" stroke-width="1"/>
  <!-- Details -->
  <rect x="320" y="360" width="820" height="380" rx="12" fill="rgba(255,255,255,0.02)" stroke="rgba(255,255,255,0.05)" stroke-width="1"/>
  <rect x="350" y="400" width="300" height="16" rx="4" fill="rgba(255,255,255,0.08)"/>
  <rect x="350" y="430" width="220" height="12" rx="4" fill="rgba(255,255,255,0.04)"/>
  <rect x="350" y="470" width="760" height="1" fill="rgba(255,255,255,0.06)"/>
  <rect x="350" y="500" width="350" height="12" rx="4" fill="rgba(255,255,255,0.05)"/>
  <rect x="350" y="530" width="280" height="12" rx="4" fill="rgba(255,255,255,0.04)"/>
  <!-- Center message -->
  <text x="600" y="640" text-anchor="middle" fill="rgba(255,255,255,0.25)" font-family="system-ui, sans-serif" font-size="24" font-weight="600">Diagnostics &amp; Pathologies</text>
  <text x="600" y="670" text-anchor="middle" fill="rgba(255,255,255,0.15)" font-family="system-ui, sans-serif" font-size="14">Remplacez par votre capture (1200x800px)</text>
</svg>