<svg width="1200" height="800" viewBox="0 0 1200 800" fill="none" xmlns="http://www.w3.org/2000/svg">
  <defs>
    <linearGradient id="bg" x1="0" y1="0" x2="1200" y2="800">
      <stop offset="0%" stop-color="#0f172a"/>
      <stop offset="100%" stop-color="#1e293b"/>
    </linearGradient>
  </defs>
  <rect width="1200" height="800" rx="16" fill="url(#bg)"/>
  <rect x="40" y="40" width="240" height="720" rx="12" fill="rgba(255,255,255,0.03)" stroke="rgba(255,255,255,0.06)" stroke-width="1"/>
  <rect x="300" y="40" width="860" height="720" rx="12" fill="rgba(255,255,255,0.02)"/>
  <!-- Course cards grid -->
  <rect x="320" y="80" width="260" height="200" rx="10" fill="rgba(139,92,246,0.06)" stroke="rgba(139,92,246,0.12)" stroke-width="1"/>
  <rect x="600" y="80" width="260" height="200" rx="10" fill="rgba(139,92,246,0.04)" stroke="rgba(139,92,246,0.08)" stroke-width="1"/>
  <rect x="880" y="80" width="260" height="200" rx="10" fill="rgba(139,92,246,0.04)" stroke="rgba(139,92,246,0.08)" stroke-width="1"/>
  <!-- Progress bars -->
  <rect x="340" y="240" width="220" height="6" rx="3" fill="rgba(255,255,255,0.06)"/>
  <rect x="340" y="240" width="160" height="6" rx="3" fill="rgba(139,92,246,0.3)"/>
  <rect x="620" y="240" width="220" height="6" rx="3" fill="rgba(255,255,255,0.06)"/>
  <rect x="620" y="240" width="80" height="6" rx="3" fill="rgba(139,92,246,0.2)"/>
  <!-- Quiz area -->
  <rect x="320" y="310" width="820" height="300" rx="12" fill="rgba(139,92,246,0.03)" stroke="rgba(139,92,246,0.08)" stroke-width="1"/>
  <rect x="360" y="350" width="400" height="20" rx="4" fill="rgba(255,255,255,0.08)"/>
  <rect x="360" y="400" width="740" height="48" rx="8" fill="rgba(255,255,255,0.03)" stroke="rgba(255,255,255,0.06)" stroke-width="1"/>
  <rect x="360" y="460" width="740" height="48" rx="8" fill="rgba(139,92,246,0.06)" stroke="rgba(139,92,246,0.15)" stroke-width="1"/>
  <rect x="360" y="520" width="740" height="48" rx="8" fill="rgba(255,255,255,0.03)" stroke="rgba(255,255,255,0.06)" stroke-width="1"/>
  <!-- Center message -->
  <text x="600" y="660" text-anchor="middle" fill="rgba(255,255,255,0.25)" font-family="system-ui, sans-serif" font-size="24" font-weight="600">E-Learning complet</text>
  <text x="600" y="690" text-anchor="middle" fill="rgba(255,255,255,0.15)" font-family="system-ui, sans-serif" font-size="14">Remplacez par votre capture (1200x800px)</text>
</svg>