<svg width="1400" height="900" viewBox="0 0 1400 900" fill="none" xmlns="http://www.w3.org/2000/svg">
  <defs>
    <linearGradient id="bg" x1="0" y1="0" x2="1400" y2="900">
      <stop offset="0%" stop-color="#0f172a"/>
      <stop offset="100%" stop-color="#1e293b"/>
    </linearGradient>
    <linearGradient id="accent" x1="0" y1="0" x2="200" y2="0">
      <stop offset="0%" stop-color="#f59e0b"/>
      <stop offset="100%" stop-color="#fbbf24"/>
    </linearGradient>
  </defs>
  <rect width="1400" height="900" rx="16" fill="url(#bg)"/>
  <!-- Browser chrome -->
  <rect x="0" y="0" width="1400" height="48" rx="16" fill="#0a0e1a"/>
  <rect x="0" y="32" width="1400" height="16" fill="#0a0e1a"/>
  <circle cx="28" cy="24" r="6" fill="#ef4444" opacity="0.8"/>
  <circle cx="48" cy="24" r="6" fill="#eab308" opacity="0.8"/>
  <circle cx="68" cy="24" r="6" fill="#22c55e" opacity="0.8"/>
  <rect x="560" y="14" width="280" height="20" rx="6" fill="rgba(255,255,255,0.05)"/>
  <text x="700" y="28" text-anchor="middle" fill="rgba(255,255,255,0.3)" font-family="monospace" font-size="11">app.osteoupgrade.fr</text>
  <!-- Placeholder content -->
  <rect x="100" y="150" width="500" height="24" rx="4" fill="rgba(255,255,255,0.08)"/>
  <rect x="100" y="190" width="350" height="16" rx="4" fill="rgba(255,255,255,0.05)"/>
  <rect x="100" y="250" width="600" height="300" rx="12" fill="rgba(245,158,11,0.08)" stroke="rgba(245,158,11,0.15)" stroke-width="1"/>
  <rect x="780" y="100" width="520" height="600" rx="12" fill="rgba(255,255,255,0.03)" stroke="rgba(255,255,255,0.06)" stroke-width="1"/>
  <!-- Center message -->
  <text x="700" y="440" text-anchor="middle" fill="rgba(255,255,255,0.25)" font-family="system-ui, sans-serif" font-size="28" font-weight="600">Capture d'ecran hero</text>
  <text x="700" y="475" text-anchor="middle" fill="rgba(255,255,255,0.15)" font-family="system-ui, sans-serif" font-size="16">Remplacez ce fichier par votre image (1400x900px)</text>
  <!-- Decorative elements -->
  <rect x="100" y="620" width="180" height="40" rx="10" fill="url(#accent)" opacity="0.15"/>
  <rect x="300" y="620" width="150" height="40" rx="10" fill="rgba(255,255,255,0.05)"/>
</svg>