<svg width="1200" height="800" viewBox="0 0 1200 800" fill="none" xmlns="http://www.w3.org/2000/svg">
  <defs>
    <linearGradient id="bg" x1="0" y1="0" x2="1200" y2="800">
      <stop offset="0%" stop-color="#0f172a"/>
      <stop offset="100%" stop-color="#1e293b"/>
    </linearGradient>
    <linearGradient id="blue" x1="0" y1="0" x2="200" y2="0">
      <stop offset="0%" stop-color="#3b82f6"/>
      <stop offset="100%" stop-color="#06b6d4"/>
    </linearGradient>
  </defs>
  <rect width="1200" height="800" rx="16" fill="url(#bg)"/>
  <!-- Mock UI elements -->
  <rect x="40" y="40" width="240" height="720" rx="12" fill="rgba(255,255,255,0.03)" stroke="rgba(255,255,255,0.06)" stroke-width="1"/>
  <rect x="300" y="40" width="860" height="720" rx="12" fill="rgba(255,255,255,0.02)"/>
  <!-- Cards -->
  <rect x="320" y="80" width="260" height="160" rx="10" fill="rgba(59,130,246,0.08)" stroke="rgba(59,130,246,0.15)" stroke-width="1"/>
  <rect x="600" y="80" width="260" height="160" rx="10" fill="rgba(59,130,246,0.05)" stroke="rgba(59,130,246,0.1)" stroke-width="1"/>
  <rect x="880" y="80" width="260" height="160" rx="10" fill="rgba(59,130,246,0.05)" stroke="rgba(59,130,246,0.1)" stroke-width="1"/>
  <!-- List items -->
  <rect x="320" y="280" width="820" height="56" rx="8" fill="rgba(245,158,11,0.06)" stroke="rgba(245,158,11,0.12)" stroke-width="1"/>
  <rect x="320" y="350" width="820" height="56" rx="8" fill="rgba(255,255,255,0.03)" stroke="rgba(255,255,255,0.05)" stroke-width="1"/>
  <rect x="320" y="420" width="820" height="56" rx="8" fill="rgba(255,255,255,0.03)" stroke="rgba(255,255,255,0.05)" stroke-width="1"/>
  <rect x="320" y="490" width="820" height="56" rx="8" fill="rgba(255,255,255,0.03)" stroke="rgba(255,255,255,0.05)" stroke-width="1"/>
  <!-- Center message -->
  <text x="600" y="640" text-anchor="middle" fill="rgba(255,255,255,0.25)" font-family="system-ui, sans-serif" font-size="24" font-weight="600">Tests orthopediques</text>
  <text x="600" y="670" text-anchor="middle" fill="rgba(255,255,255,0.15)" font-family="system-ui, sans-serif" font-size="14">Remplacez par votre capture (1200x800px)</text>
</svg>