<svg xmlns="http://www.w3.org/2000/svg" viewBox="0 0 128 128" role="img" aria-label="OsteoUpgrade logo">
  <defs>
    <linearGradient id="leaf" x1="0" y1="0" x2="1" y2="1">
      <stop offset="0%" stop-color="#45c1f0" />
      <stop offset="100%" stop-color="#1f8ccf" />
    </linearGradient>
    <linearGradient id="leafShadow" x1="0" y1="0" x2="1" y2="1">
      <stop offset="0%" stop-color="#2aa7db" />
      <stop offset="100%" stop-color="#197ab4" />
    </linearGradient>
  </defs>
  <path
    d="M28 18c22-14 62 2 68 34 6 33-14 62-46 70-24 6-44-8-49-27-6-23 1-56 27-77z"
    fill="url(#leaf)"
  />
  <path
    d="M54 40c-8 10-13 25-13 41 0 20 9 34 24 38 5 1 9 1 14 0-25-9-33-43-25-79z"
    fill="url(#leafShadow)"
    opacity="0.65"
  />
  <path d="M42 70c10 2 20 2 30-4" fill="none" stroke="#e6f4ff" stroke-width="6" stroke-linecap="round" />
  <path d="M42 92c12 3 24 1 34-6" fill="none" stroke="#e6f4ff" stroke-width="6" stroke-linecap="round" />
  <g fill="#9e9e9e">
    <circle cx="92" cy="28" r="6" />
    <circle cx="100" cy="40" r="6" />
    <circle cx="104" cy="54" r="6" />
    <circle cx="104" cy="68" r="6" />
    <circle cx="100" cy="82" r="6" />
    <circle cx="92" cy="96" r="6" />
  </g>
</svg>
