<?xml version="1.0" encoding="UTF-8"?> <svg xmlns="http://www.w3.org/2000/svg" id="Calque_2" viewBox="0 0 1641.79 386.9"><g id="Calque_1-2"><path d="M514.48,41.98c0-15.58,12.55-27.7,28.13-27.7,16.44,0,28.56,12.12,28.56,27.7s-12.12,27.26-28.56,27.26c-15.58,0-28.13-11.68-28.13-27.26ZM522.27,311.58V115.11h41.11v196.47h-41.11Z" fill="#1b2630"></path><path d="M642.57,311.58v-160.55h-38.95v-33.76h14.28c15.58,0,25.96-8.65,25.96-23.8v-16.01c0-49.77,35.05-77.46,79.63-77.46h7.36v38.08h-6.49c-25.97,0-40.68,16.45-40.68,42.84v34.19h53.23v35.92h-53.23v160.55h-41.11Z" fill="#1b2630"></path><path d="M758.55,213.35c0-58.42,45.87-103,105.59-103,39.81,0,72.7,19.47,90.45,50.2l-35.05,22.5c-9.95-19.47-31.16-32.89-55.39-33.32-35.92.43-62.32,27.26-62.32,63.61s26.4,63.18,62.32,63.18c23.8,0,44.14-12.55,54.96-31.59l34.62,22.5c-17.74,29.86-50.63,48.9-89.58,48.9-59.72,0-105.59-44.57-105.59-103Z" fill="#1b2630"></path><path d="M989.64,213.35c0-58.42,45.87-103,105.59-103s105.59,44.57,105.59,103-45.44,103-105.59,103-105.59-44.57-105.59-103ZM1157.54,213.35c0-36.35-26.83-63.18-62.32-63.61-35.92.43-62.32,27.26-62.32,63.61s26.4,63.18,62.32,63.18,62.32-26.83,62.32-63.18Z" fill="#1b2630"></path><path d="M1459.6,213.35c0,57.99-45.44,103-103.86,103-23.37,0-46.3-8.22-64.05-22.94v93.49h-41.11V115.11h41.11v18.18c17.74-14.71,40.68-22.94,64.05-22.94,58.42,0,103.86,45.44,103.86,103ZM1416.33,213.35c0-36.35-26.4-63.18-62.32-63.61-35.05.43-61.88,27.26-61.88,63.61s26.83,63.18,61.88,63.18,62.32-26.83,62.32-63.18Z" fill="#1b2630"></path><path d="M1493.35,270.04l35.92-16.44c6.49,15.15,21.2,24.67,37.65,24.67,21.2,0,33.32-8.66,33.32-22.94s-12.98-21.64-34.19-25.97c-33.32-6.06-66.21-20.77-66.21-61.88,0-30.29,25.53-57.12,68.37-57.12,34.62,0,57.99,17.74,67.08,42.84l-34.19,15.58c-4.33-14.71-18.18-22.94-32.46-22.94-17.74,0-27.7,9.52-27.7,21.2,0,15.15,12.98,21.64,33.32,25.1,50.63,9.09,67.51,32.89,67.51,62.32,0,32.89-25.53,61.88-75.3,61.88-39.38,0-62.32-21.2-73.14-46.3Z" fill="#1b2630"></path><path d="M374.79,312.8c-16.52,0-30.7-10.64-35.28-26.47-3.98-13.77.51-28.06,11.7-37.31,6.48-5.35,9.11-14.07,6.66-22.11-2.44-8.04-9.48-13.82-17.84-14.66-18.9-1.9-34.53-14.98-39.84-33.33-2.2-7.62-2.41-15.29-.61-22.79,1.93-8.06-1.11-16.51-7.74-21.49-3.68-2.77-8.09-4.18-12.51-4.18-3.54,0-7.08.9-10.28,2.72-3.65,2.08-7.64,3.75-11.85,4.96-4.7,1.36-9.49,2.05-14.23,2.05s-9.8-.74-14.4-2.2c-2.07-.66-4.19-.98-6.29-.98-5.84,0-11.53,2.46-15.55,6.97-5.46,6.14-6.8,14.91-3.43,22.39.89,1.97,1.64,4.03,2.25,6.12,3.55,12.26,2.19,24.89-3.83,35.57-6.12,10.87-16.7,18.94-29.78,22.73-4.71,1.36-9.49,2.05-14.23,2.05-20.94,0-38.91-13.49-44.72-33.57-3.41-11.79-1.96-24.07,4.09-34.58,6.19-10.76,16.58-18.71,29.27-22.38,5.16-1.49,10.35-2.25,15.42-2.25s9.54.7,14.02,2.09c2.02.63,4.1.93,6.15.93,5.91,0,11.65-2.52,15.67-7.11,5.41-6.19,6.68-14.99,3.22-22.45-1.03-2.22-1.89-4.54-2.57-6.9-3.44-11.88-1.95-24.24,4.2-34.81,6.18-10.64,16.54-18.5,29.16-22.16,5.16-1.49,10.35-2.25,15.42-2.25,20.57,0,38.16,13.04,43.77,32.44,2.31,7.98,2.56,16.28.72,24-1.93,8.06,1.12,16.5,7.75,21.48,3.68,2.76,8.08,4.17,12.5,4.17,3.54,0,7.09-.9,10.3-2.73,3.56-2.02,7.42-3.65,11.47-4.82,5.17-1.5,10.35-2.25,15.43-2.25,0,0,1.24.01,1.38.01,8.28,0,15.78-4.91,19.09-12.53,3.36-7.74,1.72-16.75-4.17-22.8-5.27-5.42-9.19-12.22-11.35-19.67-3.43-11.87-1.94-24.23,4.2-34.8,6.18-10.64,16.54-18.5,29.15-22.15,5.16-1.49,10.35-2.25,15.42-2.25,20.57,0,38.16,13.03,43.78,32.43,3.54,12.26,2.18,24.89-3.83,35.57-6.12,10.87-16.7,18.94-29.78,22.72-4.7,1.36-9.49,2.05-14.23,2.05,0,0-1.38-.02-1.55-.02-8.23,0-15.73,4.86-19.06,12.42-3.4,7.72-1.82,16.73,4.02,22.81,5.03,5.24,8.63,11.51,10.69,18.63,3.55,12.26,2.19,24.89-3.83,35.57-3.3,5.86-7.84,10.88-13.5,14.93-6.85,4.9-10.08,13.45-8.16,21.66,1.91,8.21,8.59,14.45,16.9,15.81,13.66,2.24,24.51,11.85,28.34,25.08,5.92,20.48-5.23,39.82-26.51,45.97-3.71,1.07-7.48,1.62-11.22,1.62h0ZM36.53,178.99c-16.45,0-30.57-10.6-35.13-26.37-5.56-19.23,5.95-38.88,26.2-44.74,4.05-1.17,8.13-1.77,12.11-1.77,16.16,0,29.98,10.24,34.39,25.48,2.78,9.63,1.72,19.55-3.01,27.94-4.81,8.54-13.11,14.88-23.39,17.85-3.7,1.07-7.46,1.61-11.18,1.61h0Z" fill="#9dc7f1"></path></g></svg> 